<svg width="340" height="147" viewBox="0 0 340 147" fill="none" xmlns="http://www.w3.org/2000/svg">
<g clip-path="url(#clip0)">
<path d="M26.738 131.34C21.1926 131.34 16.3104 129.963 12.2271 127.208C6.69081 123.501 3.13309 117.568 1.93953 110.069C0.817127 103.025 1.81559 94.7067 4.82014 86.0144C7.82469 77.3221 12.7849 68.4553 19.1681 60.307C28.611 48.2589 40.3446 38.7724 52.2044 33.5942C58.5647 30.8238 64.6151 29.4282 70.1973 29.4282C75.7428 29.4282 80.6249 30.8054 84.7082 33.5598C88.7411 36.2613 91.7525 40.1932 93.5383 45.0524C93.8786 44.4179 94.1613 43.7542 94.383 43.0692L96.2192 37.1519L97.2819 43.2551C99.4739 55.8633 96.031 67.326 92.1978 75.4491C93.2003 74.8501 94.1399 74.1519 95.0027 73.365L99.5153 69.1255L97.4288 74.9556C94.0455 84.4054 88.3532 92.9783 80.4872 100.489C82.2454 100.328 84.0495 100.013 85.4726 99.4236L91.1948 97.0548L87.178 101.769C77.4689 113.172 64.0436 119.046 54.4148 121.968C51.3258 123.948 48.0881 125.685 44.7309 127.165C38.3706 129.924 32.3179 131.34 26.738 131.34ZM70.179 39.2774C65.9923 39.2774 61.2755 40.409 56.1592 42.6423C45.7684 47.1778 35.3936 55.6154 26.9423 66.3964C15.6815 80.7627 9.83538 96.9102 11.6854 108.518C12.4474 113.308 14.4788 116.838 17.7198 119.009C20.1597 120.641 23.1987 121.47 26.7564 121.47C30.943 121.47 35.6599 120.338 40.7761 118.105C51.1669 113.57 61.5417 105.132 69.993 94.3509C81.2538 79.9823 87.1 63.844 85.2499 52.2298C84.4879 47.4395 82.4565 43.9093 79.2156 41.7379C76.7757 40.106 73.7367 39.2774 70.179 39.2774Z" fill="#56A4CB"/>
<path d="M87.761 63.284C90.9056 59.0675 92.0831 53.4945 92.7327 49.8082C90.2468 52.8725 88.3348 54.2175 88.3348 54.2175C88.6218 56.9994 88.7939 59.7263 87.761 63.284Z" fill="#277DAD"/>
<path d="M46.3078 40.1243C72.4972 23.5362 89.1084 41.3248 89.3677 45.7249C88.305 38.7816 83.4 33.9041 77.5836 31.1612C72.5317 28.5468 57.3482 32.1826 57.3482 32.1826L46.3078 40.1243Z" fill="#DDEDF5"/>
<path d="M37.4135 126.185C32.7265 129.304 20.9676 128.06 18.592 127.208C18.592 124.224 19.5583 121.043 19.5583 121.043H25.3287C25.3287 121.043 25.2553 123.391 31.3378 121.899C34.6247 123.584 37.4135 126.185 37.4135 126.185Z" fill="#277DAD"/>
<path d="M2.37564 100.927C7.67091 82.7068 25.7878 47.6759 60.3023 32.2973C54.8234 29.9768 31.4296 42.6767 19.1727 60.3001C4.09712 81.9907 4.09712 87.3847 2.37564 100.927Z" fill="#DDEDF5"/>
<path d="M77.5813 83.5217C77.5813 83.5217 83.4068 81.5592 86.9921 78.853C89.7464 74.2463 94.4151 63.1945 94.4151 53.5289C87.6807 69.2472 82.9386 71.0719 82.9386 71.0719C80.439 78.6235 79.4956 79.7482 77.5813 83.5217Z" fill="#277DAD"/>
<path d="M81.2538 103.872C70.4659 112.266 63.1048 115.628 53.5839 118.791L47.4784 122.159L46.0507 116.267C46.0507 116.267 69.0611 104.074 76.7114 84.9746C80.416 86.7351 90.3662 82.0297 92.7326 78.6235C88.142 86.8866 72.5339 103.72 72.5339 103.72L81.2538 103.872Z" fill="#277DAD"/>
<path d="M70.1973 30.9087C75.3847 30.9087 80.0258 32.1987 83.8774 34.7786C88.484 37.8635 91.6263 42.6194 93.0586 48.6124C94.2062 47.0057 95.2758 45.1924 95.8129 43.4893C98.1312 56.8227 94.0502 68.8914 89.4687 77.547C89.3012 77.9625 89.129 78.3802 88.9523 78.7957C91.4771 77.648 94.1649 76.1767 96.0241 74.4346C91.7847 86.2784 84.3181 95.3448 76.4589 102.109H76.9846C79.6586 102.109 83.393 101.88 86.0441 100.782C76.7573 111.685 64.0092 117.504 53.7859 120.586C50.71 122.569 47.4827 124.307 44.1341 125.783C37.9368 128.487 32.0562 129.839 26.7426 129.839C21.5552 129.839 16.9141 128.549 13.0626 125.969C7.87978 122.498 4.5447 116.918 3.4223 109.835C2.33892 103.032 3.31442 94.9638 6.24323 86.5033C9.18122 77.9854 14.0633 69.2472 20.3479 61.2297C29.6393 49.3721 41.1686 40.0463 52.8058 34.9645C59.0031 32.2606 64.8837 30.9087 70.1973 30.9087ZM26.7564 122.962C31.0945 122.962 36.0478 121.796 41.3729 119.471C51.9864 114.839 62.5654 106.245 71.1682 95.2714C82.6746 80.5814 88.6355 64.007 86.7235 51.9957C85.8926 46.7784 83.6455 42.9109 80.0465 40.4985C77.3403 38.6875 73.9984 37.7854 70.1767 37.7854C65.8363 37.7854 60.8853 38.9515 55.5602 41.2743C44.9467 45.9085 34.3653 54.5021 25.7648 65.476C14.2584 80.166 8.29753 96.7404 10.2095 108.752C11.0404 113.969 13.2875 117.837 16.8866 120.249C19.5904 122.06 22.9347 122.962 26.7564 122.962V122.962ZM70.1973 27.9363C64.4086 27.9363 58.1562 29.3846 51.6054 32.2423C39.5229 37.5215 27.585 47.1618 17.9929 59.4003C11.5133 67.6634 6.47047 76.7115 3.41541 85.5278C0.325933 94.4496 -0.688592 103.018 0.459061 110.303C1.72148 118.229 5.50873 124.504 11.3893 128.436C15.7228 131.34 20.885 132.811 26.7311 132.811C32.5176 132.811 38.7723 131.363 45.3231 128.505C48.6894 127.024 51.9376 125.287 55.0391 123.311C60.8483 121.558 66.4472 119.171 71.7352 116.195C83.3816 109.567 87.6738 104.88 95.852 94.429L85.025 97.9569C95.9208 86.1108 98.6706 78.9288 102.162 65.3635L95.9048 70.4453C102.83 54.2933 98.2391 36.6768 96.7701 33.1007C95.8106 35.9308 94.2453 39.9063 93.4212 41.109C91.5679 37.5624 88.8587 34.5344 85.5392 32.2997C81.2056 29.3961 76.0435 27.9248 70.1973 27.9248V27.9363ZM26.7564 119.978C23.4993 119.978 20.7381 119.234 18.5507 117.77C15.6678 115.837 13.8545 112.647 13.159 108.283C11.3732 97.064 17.1046 81.3687 28.1152 67.3168C36.4173 56.7263 46.5878 48.4494 56.756 44.0103C61.6817 41.8596 66.1989 40.7693 70.179 40.7693C73.436 40.7693 76.195 41.513 78.3847 42.9774C81.2676 44.9101 83.0809 48.1005 83.7764 52.4639C85.5621 63.6834 79.8307 79.3787 68.8201 93.4305C60.518 104.026 50.3475 112.289 40.1793 116.737C35.2513 118.888 30.7364 119.978 26.7564 119.978V119.978Z" fill="#083751"/>
<path d="M26.7564 119.978C23.4993 119.978 20.7381 119.234 18.5507 117.77C15.6678 115.837 13.8545 112.647 13.159 108.283C11.3732 97.064 17.1046 81.3687 28.1152 67.3168C36.4173 56.7263 46.5878 48.4494 56.756 44.0103C61.6818 41.8596 66.1989 40.7693 70.179 40.7693C73.436 40.7693 76.195 41.513 78.3847 42.9774C81.2676 44.9101 83.0809 48.1005 83.7764 52.4639C85.5621 63.6834 79.8307 79.3787 68.8201 93.4305C60.518 104.026 50.3475 112.289 40.1793 116.737C35.2513 118.888 30.7364 119.978 26.7564 119.978V119.978Z" fill="#083751"/>
<path d="M11.6533 14.0175C11.5178 15.7275 11.6349 23.9149 14.7244 25.3082C12.5829 20.2585 14.8575 10.8477 25.595 10.8018C23.6302 12.2662 22.1245 14.6694 21.4634 16.2738C20.7529 17.0485 20.1245 17.8946 19.5881 18.7987C20.3617 18.3396 22.8727 14.0749 32.295 14.0451C34.7968 14.0451 37.5145 14.3182 39.7317 15.5806C35.9215 14.6373 31.8634 16.7283 28.7005 18.856C30.9292 18.1399 34.1725 15.9938 38.7356 16.8867C41.8021 17.4857 43.0622 20.3113 45.5939 21.7688C47.6597 22.9601 50.5931 22.8705 51.9451 20.6487C52.2821 20.0969 52.4505 19.4587 52.4294 18.8124C53.009 19.4252 53.5158 20.103 53.9397 20.8323C54.8798 22.4602 55.2725 24.347 55.0598 26.2148C52.8265 26.0013 50.6276 26.7726 48.3873 26.5132C46.218 26.2247 44.1679 25.3519 42.4563 23.9883C43.6745 25.8131 45.5137 27.1335 47.6322 27.7044C50.3269 28.4275 52.9504 27.4175 55.6428 27.895C58.7162 28.4367 62.5884 30.4405 66.0956 28.1084C66.7165 27.6853 67.2381 27.1324 67.6243 26.4879C68.1839 28.029 68.2274 29.7103 67.7482 31.2782C67.5004 32.1599 67.0383 32.9665 66.4032 33.6263C65.8271 34.1979 65.1224 34.393 64.4614 34.7878C62.2395 33.8696 59.7537 33.5598 57.3459 33.4106C59.5104 34.0992 61.7276 34.7878 63.7728 35.7679C65.8179 36.748 67.1997 38.2927 68.6319 40.0142C69.8232 41.4464 71.2119 42.7502 73.0779 43.1932C74.3597 43.4984 75.7018 43.4331 76.9478 43.005C77.2806 44.8756 75.5477 47.9261 73.1307 48.3301C74.3003 49.0761 75.5597 49.6707 76.879 50.0997C75.9608 50.9261 73.7688 51.5435 72.3595 51.6169C75.7474 53.3935 77.4528 58.1264 77.3747 61.9688C76.8308 60.7959 76.2064 59.4439 74.7879 58.4202C75.1873 60.0614 75.1139 62.0652 74.8109 63.929C74.1407 63.2909 71.5975 60.3437 70.5141 58.9183C71.0397 57.2772 70.9479 56.1456 70.5852 54.4746C70.1262 57.229 68.1545 60.3896 67.1423 61.6566C67.6013 59.942 67.4223 58.0966 67.1423 56.3774C66.7995 54.4397 66.2342 52.5481 65.4575 50.7401C63.7842 46.6568 63.7842 46.6568 62.3382 43.1014C61.5004 46.4961 60.782 48.0799 59.6688 49.4548C59.7262 48.3672 59.6522 47.2767 59.4484 46.2069C59.3704 45.7616 58.6749 42.2796 55.4179 37.6041C55.7002 39.7709 56.5655 42.3439 55.5395 44.7677C55.4729 42.9499 54.2725 37.6867 50.6344 35.5865C51.6536 37.3401 52.5487 42.8328 51.323 44.2421C51.4401 41.2123 49.3307 38.4189 47.0308 36.585C45.3277 35.2262 35.8848 29.9561 35.8986 29.9791C35.9124 30.002 37.6499 37.5766 33.8512 38.1756C35.0126 35.5567 32.093 30.0457 28.8015 29.0311C29.1871 27.1834 29.0838 24.9616 28.4457 23.2929C26.8115 25.0671 22.6707 25.1429 20.4282 27.0893C19.4642 27.9202 18.4382 29.1872 18.0227 30.6585L16.7787 32.3754C16.7528 32.2277 16.6982 32.0866 16.618 31.9599L10.423 26.0702C9.01137 23.3847 8.62576 16.9027 11.6533 14.0175Z" fill="#E61C3F"/>
<path d="M4.61816 22.5836L8.13457 26.1322C7.94406 26.4742 7.68928 26.8552 7.31285 26.9424C7.5327 26.9935 7.76259 26.9801 7.97506 26.904C8.18753 26.8279 8.37359 26.6922 8.511 26.5132L10.1728 28.191C9.8354 28.9508 9.27993 29.8827 8.4169 30.0273C9.52094 30.344 10.3656 29.6417 10.7581 28.7832L12.8744 30.9179C12.5944 31.9255 11.9815 33.2132 10.2164 33.4427C12.133 33.9018 13.2187 32.7931 13.5744 31.6202L15.0664 33.126C15.5553 34.7327 12.8009 36.601 11.1644 36.1718L4.61816 22.5836Z" fill="white"/>
<path d="M18.2155 122.303C17.9493 125.847 16.9508 132.487 13.221 134.158C12.0733 133.699 11.068 132.171 10.2692 130.369C10.6824 127.727 11.8759 126.926 14.1712 125.198C15.5002 124.199 16.4137 122.443 16.9761 121.043C17.504 121.599 17.9562 122.048 18.2155 122.303Z" fill="#9EA7AC"/>
<path d="M42.998 114.584C43.4042 115.553 43.9505 116.879 44.4991 118.273C44.8434 119.149 45.1877 120.054 45.4975 120.921C46.317 123.201 46.9115 125.204 46.6452 125.666C46.3789 126.127 44.8594 126.29 42.8396 126.125C41.6277 124.396 41.6644 123.111 41.9215 120.997C41.9559 120.703 41.9972 120.391 42.0385 120.061C42.1189 119.25 42.0583 118.431 41.8595 117.641C41.5483 116.417 41.0856 115.235 40.4823 114.125C41.3357 114.181 42.1797 114.335 42.998 114.584V114.584Z" fill="#9EA7AC"/>
<path d="M79.4956 75.9242C76.6438 82.0809 73.0785 87.8811 68.8729 93.2056C67.303 95.2163 65.671 97.1398 63.9771 98.976C64.5325 94.7756 63.3206 90.364 60.6328 88.2845C63.1255 93.6142 62.469 98.1038 60.3734 101.499C57.2449 106.528 51.3965 108.692 47.8755 108.616C45.2069 108.535 42.6018 107.783 40.301 106.429C40.301 106.429 30.5276 104.026 29.8872 106.241C29.2468 108.456 32.6278 114.125 32.6278 114.125C32.6278 114.125 34.9621 114.015 35.171 115.695C36.1048 114.921 37.2299 114.413 38.428 114.224C39.3557 114.841 40.0492 115.752 40.3974 116.811C41.0309 118.791 40.3538 120.988 39.9934 122.569C39.9202 122.862 39.8634 123.159 39.8236 123.458C39.7757 123.816 39.7905 124.181 39.8672 124.534C39.9705 124.987 40.1666 125.413 40.4433 125.785C39.6522 125.633 38.8706 125.435 38.1021 125.193C37.2681 124.933 36.4554 124.609 35.6713 124.224C34.4466 123.654 33.3598 122.826 32.4855 121.796C28.8933 122.042 27.6653 122.81 26.5659 120.807C26.2363 120.161 25.9659 119.486 25.7579 118.791C24.3302 114.371 21.1168 109.876 19.8039 108.049C18.491 106.222 20.1528 102.38 23.2951 100.998C26.4373 99.6164 39.213 96.3433 41.102 93.8207C42.9911 91.2982 42.1303 85.9249 51.3093 82.5026C48.6857 81.651 41.0974 85.4268 39.213 92.1062C35.653 94.4382 26.5521 97.0824 24.0755 97.8169C19.9829 99.0288 17.6853 101.99 17.022 103.863C14.9998 104.579 11.7015 105.72 11.6716 107.306C11.6372 109.08 12.8996 111.646 12.8193 115.323C12.8193 115.902 13.4023 116.87 14.2125 117.912C14.7221 118.571 15.3189 119.26 15.8996 119.898C15.7634 121.135 15.1836 122.28 14.2676 123.123C13.6121 123.738 12.889 124.277 12.1123 124.729C11.3434 125.202 10.6204 125.59 10.1246 125.962C9.6954 126.287 9.35642 126.716 9.1399 127.208C8.77054 125.968 8.5215 124.695 8.39623 123.407C6.41997 120.706 5.69924 119.964 5.33429 118.817C5.30553 118.714 5.28632 118.609 5.2769 118.502C5.2769 118.502 5.2769 118.502 5.2769 118.502C5.13 117.153 5.47889 113.115 5.69924 110.781C5.97238 110.749 6.5485 111.139 7.65484 111.763L7.88437 111.901L7.58828 111.442C5.98156 108.977 4.16139 106.259 4.96245 103.792C5.39397 102.465 6.23634 101.726 7.56991 100.929C7.57742 100.923 7.58594 100.917 7.59516 100.913C8.10702 100.603 8.69461 100.284 9.36025 99.9171C11.7611 98.5881 21.4336 95.4619 22.6914 92.9003C23.407 91.4775 24.2057 90.0979 25.0831 88.7688C25.2891 90.6381 25.6938 92.4802 26.2904 94.2637C26.1481 81.41 30.8168 73.3581 32.6553 70.6841C32.8675 73.2503 32.8713 75.8295 32.6668 78.3963C35.2329 75.9885 35.3959 65.3773 32.1251 56.7722C31.8527 56.0546 31.5551 55.353 31.2322 54.6674C30.8879 53.9352 30.5161 53.226 30.1167 52.5466C30.7656 51.1386 31.049 49.5897 30.9407 48.0432C30.8912 47.3124 30.7634 46.5891 30.5597 45.8856C30.2136 44.6148 29.5965 43.434 28.751 42.4243C29.1137 44.0516 29.4396 45.4564 29.4786 46.8496C29.5111 47.8252 29.3776 48.7993 29.0838 49.7302C29.0012 49.9896 28.9048 50.2513 28.7946 50.5198C28.813 50.3339 28.8267 50.1503 28.8313 49.9666C28.8584 49.1886 28.7812 48.4105 28.6018 47.653C28.4972 47.2093 28.3591 46.7743 28.1886 46.3515C28.1634 46.2919 28.0716 46.3355 28.0854 46.3951C28.2033 46.9024 28.2732 47.4196 28.2942 47.9399C28.3311 48.8907 28.2291 49.8418 27.9912 50.7631C27.8894 51.1733 27.766 51.5778 27.6217 51.975C27.4088 52.5609 27.1659 53.1355 26.8941 53.6965C25.0877 55.9138 22.2094 56.6092 20.7289 59.242C20.5912 59.1846 20.4351 59.1203 20.2698 59.0538C19.7123 58.8351 19.1392 58.6586 18.5552 58.5258C17.5155 58.2963 16.3541 58.2137 15.3969 58.5993C14.902 58.7537 14.432 58.9786 14.0014 59.2672C13.6085 59.5212 13.28 59.863 13.0419 60.2657C13.6043 59.6345 15.3372 59.118 16.7144 59.1387C17.0956 59.1774 17.4598 59.3159 17.7703 59.5404C18.2227 59.8703 18.5715 60.3226 18.7756 60.8441C18.7756 60.8808 18.7572 60.9038 18.7549 60.9175C18.7653 60.9006 18.7745 60.8829 18.7825 60.8647V60.8831C19.0969 61.6474 19.276 62.7492 19.1406 64.3375C18.7526 65.9236 18.3831 67.3421 17.846 67.9894C16.8223 69.238 13.4643 71.2395 11.6601 71.5907C11.5241 71.6233 11.3861 71.647 11.247 71.6619C10.7678 71.689 10.2877 71.6276 9.83079 71.4805C9.67242 71.4369 9.51174 71.3818 9.35107 71.3199C9.66151 71.0744 9.98402 70.8446 10.3174 70.6313C10.6702 70.4033 11.0366 70.1971 11.4146 70.0138C11.8568 69.8011 12.2738 69.5961 12.6655 69.3987C15.514 67.9848 17.0266 67.0437 17.4994 66.1715C17.9332 65.3704 17.6073 64.2572 16.9302 63.2909C16.6234 62.8441 16.2556 62.4424 15.8376 62.0973C15.637 61.9312 15.4228 61.7823 15.1972 61.652C15.5228 61.5639 15.8639 61.5498 16.1957 61.6107C16.4935 61.6609 16.7885 61.7267 17.0794 61.8081C16.9072 61.6153 16.0327 61.4041 15.7802 61.2572C14.9539 60.7706 14.2194 60.9795 13.6571 61.613C12.9226 62.4393 11.9149 65.3681 10.198 67.3742C9.02743 68.7514 6.81246 69.2541 5.5225 69.44C3.68626 68.1409 2.5386 66.3597 2.38941 64.9458C2.22185 63.2633 2.61894 60.9933 4.32435 59.9466C5.61431 56.8526 7.90044 48.3806 8.04504 47.0631C8.18965 45.7456 6.58293 42.2154 6.72754 40.5651C6.83312 39.3945 8.53394 36.5988 8.98841 35.8689L9.55076 37.1657C9.56454 37.1795 9.62192 37.2461 9.72062 37.3356C8.88283 39.4013 8.80249 42.0249 9.31894 44.109C9.44059 42.7892 9.54847 41.4855 9.91801 40.207C10.1475 39.3968 10.4436 38.6141 10.7306 37.8291C11.5454 38.0058 12.8262 37.8841 14.7129 36.6998C15.5304 36.2285 16.1828 35.5168 16.5813 34.6615L17.9585 33.0847C18.0544 33.4697 18.1978 33.8413 18.3854 34.191C18.3854 33.1765 19.074 31.4848 19.875 30.2178C21.367 27.8215 24.2292 27.1031 26.0471 26.2148C25.3218 26.8896 24.5644 27.5277 23.8597 28.2232C22.37 29.6876 21.468 31.4366 21.7067 33.5437C22.5307 31.2943 23.8276 29.6417 25.673 28.136C26.1321 27.755 26.8206 27.2477 27.4059 26.6624C27.1535 28.3288 26.9469 29.9952 25.8566 31.432C24.5667 33.1466 22.3471 34.8176 24.3417 37.0372C23.7908 35.5567 25.7923 34.1428 26.637 33.2178C27.3793 32.4012 27.968 31.4572 28.3746 30.4313C32.0471 32.6279 34.4686 38.1734 30.8191 39.1902C32.3799 40.0808 38.9353 40.5903 37.9667 33.1696C39.8029 34.3172 41.7608 35.2721 43.7049 36.3624L43.8587 36.4473C44.4385 36.7722 45.0016 37.1261 45.5457 37.5077C47.3292 38.761 48.4355 40.0326 49.092 41.2376C49.458 41.892 49.7132 42.6024 49.8472 43.3401C50.1914 45.2613 49.512 46.7027 49.1746 47.0126C50.9696 46.9667 53.0766 45.6606 53.1731 41.6186C53.1731 41.4625 53.1731 41.3019 53.1731 41.1389L53.1868 41.1733C53.2304 41.3019 53.2717 41.4258 53.3154 41.5497C54.6604 45.6583 54.6742 47.9904 54.6742 47.9904C55.8218 46.9644 57.1118 45.6331 57.2816 43.1174C57.362 43.5375 58.5532 47.692 58.2732 51.8901C59.0926 51.6124 61.2135 51.1395 62.4323 47.8733C62.8156 49.021 64.0161 51.4632 64.7827 54.1648C65.2923 55.9574 65.6733 57.874 65.5929 59.7469C65.4621 62.8249 63.9862 64.3375 63.8692 64.6864C63.9748 64.7025 67.4062 64.9802 69.511 61.4202C71.5493 65.095 74.7053 70.6864 79.4956 75.9242Z" fill="#E5ECEF"/>
<path d="M15.273 47.9995C16.0626 46.581 17.3709 44.5887 19.0786 43.1289C19.5377 43.5306 19.8085 44.4303 19.9003 44.9996C20.263 47.1755 18.3234 46.3997 15.273 47.9995Z" fill="#FFCE55"/>
<path d="M1.99231 67.147C1.99231 67.147 2.39628 63.4952 5.713 62.6688C5.27919 60.9428 6.56226 57.7454 8.85757 58.4065C9.35795 53.9306 10.5813 48.3071 10.5813 48.3071C10.5813 48.3071 13.0327 49.0531 13.3357 47.7333C13.6387 46.4135 14.7129 42.2246 18.5644 41.0769C15.2798 41.0769 13.416 44.2284 12.1559 46.4089C10.2807 46.3515 8.77264 44.5153 9.36483 41.6461C9.95702 38.777 10.283 36.8834 10.283 36.8834L8.86675 35.2193C8.86675 35.2193 5.35264 38.7288 5.94253 41.0769C6.53242 43.425 8.11159 46.3309 7.31971 47.995C6.52783 49.659 3.58066 59.0675 3.58066 59.0675C1.10173 62.0812 0.881382 64.2136 1.99231 67.147Z" fill="white"/>
<path d="M53.8662 83.5217C51.0935 83.5217 43.3675 88.9914 43.3675 94.6907C39.1097 96.5269 28.5421 100.392 28.5421 100.392L44.7585 97.7136C44.7585 97.7136 49.4432 99.6646 52.5832 97.7136C55.7232 95.7626 54.9427 91.957 54.9427 91.957C51.082 95.3035 44.8595 88.5714 53.8662 83.5217Z" fill="white"/>
<path d="M39.2635 46.122C44.5289 51.1854 55.4752 63.3988 51.0935 74.1867C49.7301 66.4791 44.8594 55.3652 39.2635 46.122Z" fill="white"/>
<path d="M3.29376 68.1431C3.29376 68.1431 4.59061 69.137 5.73826 68.1431C7.44826 66.6627 6.02977 62.8456 7.11545 61.8678C8.20113 60.89 10.4299 61.1034 10.6571 61.4868C10.0672 59.88 9.56454 58.1195 9.94785 57.4309C10.3312 56.7424 11.6992 52.6108 14.5385 50.7746C13.3265 52.8725 11.2195 57.9864 12.1468 60.2611C13.0075 59.0675 16.9853 57.9497 18.7458 59.6803C20.5063 61.411 20.6233 66.2472 18.7458 68.5724C16.8682 70.8975 11.9585 73.3443 10.6571 73C6.79869 71.4621 5.09787 70.1974 3.29376 68.1431Z" fill="#9EA7AC"/>
<path d="M12.149 60.2611C14.7703 56.2259 17.6096 57.9474 19.9531 52.6108C20.2557 53.3857 20.2557 54.246 19.9531 55.0209C23.8964 53.3017 29.1894 45.8213 27.4036 38.7816C29.0104 40.9989 30.4449 47.9628 29.5268 51.2336C28.6087 54.5044 24.4771 56.7997 23.6738 58.1195C22.8704 59.4393 20.1206 61.5051 20.1206 61.5051C18.7526 59.0721 14.8828 59.6413 12.149 60.2611Z" fill="#9EA7AC"/>
<path d="M13.6227 49.3974C13.6227 49.3974 17.9103 49.8817 20.1115 48.7662C22.3127 47.6507 23.4925 44.0034 23.4925 42.741C22.8521 44.4625 20.6807 45.64 20.6807 45.64C19.8948 46.4449 18.9321 47.0555 17.869 47.4234C16.1429 47.9995 14.3112 48.5366 14.3112 48.5366L13.6227 49.3974Z" fill="#9EA7AC"/>
<path d="M12.149 33.0433C12.149 33.0433 13.2095 31.9806 12.9662 30.5323C12.5806 31.7235 11.7588 31.953 11.3916 31.953C11.0243 31.953 9.58289 29.6577 9.58289 29.6577C9.58289 29.6577 11.1414 28.1842 10.6594 27.2018C10.1751 28.2048 8.85758 29.0954 8.85758 29.0954L7.31284 26.9562C7.31284 26.9562 9.14908 26.1115 8.85758 25.3081C8.28605 25.3081 14.8254 31.1497 14.8254 31.1497L16.1406 33.2843C16.1406 33.2843 16.1406 34.5467 14.1712 35.777C12.6425 34.0441 12.149 33.0433 12.149 33.0433Z" fill="#9EA7AC"/>
<path d="M30.0341 48.135C32.0631 47.0516 27.3945 40.4411 27.3945 38.7816C34.8542 45.5642 41.2811 56.4555 38.4119 65.8915C37.7234 63.9405 35.7723 59.9558 35.7723 59.9558C35.7723 59.9558 39.1051 69.0223 33.6515 75.2196C34.1656 67.186 30.826 55.0852 29.2307 53.5289C30.6653 51.0385 30.0341 48.135 30.0341 48.135Z" fill="#9EA7AC"/>
<path d="M49.0415 82.576C45.369 82.2593 38.871 84.8599 37.1495 90.0243C37.2551 88.1146 36.9406 85.9318 39.3347 83.5217C36.1212 83.5217 31.9897 88.1123 31.9897 91.9569C26.5934 94.4818 10.1843 102.304 8.86218 103.452C7.54008 104.599 7.75355 105.814 9.95474 111.063C8.57527 114.928 6.53474 117.217 11.7061 121.699C13.8361 123.536 14.8323 123.765 14.8323 123.765L17.0358 119.239C17.0358 119.239 11.8277 109.564 13.3288 107.124C16.8705 104.714 18.2155 104.37 18.2155 104.37C18.2155 104.37 19.4757 100.583 25.9025 98.7464C32.3294 96.9102 40.4915 93.1229 40.4915 93.1229C42.1992 84.6303 47.4784 83.5584 49.0415 82.576Z" fill="#9EA7AC"/>
<path d="M62.7422 100.009C62.7422 100.009 63.6603 89.68 58.73 85.4337C59.9878 88.0733 60.5662 93.3525 58.73 95.9921C58.755 93.6448 57.941 91.3656 56.4347 89.5652C56.4347 89.5652 58.9228 98.8612 51.9611 101.099C46.473 102.304 44.2696 99.7793 44.2696 99.7793C38.4165 101.845 30.0387 102.648 27.6286 103.222C26.0219 106.895 26.0219 114.309 31.5903 119.586C31.1808 118.285 30.8542 116.959 30.6125 115.617C30.6125 115.617 32.3868 118.486 34.3079 118.027C36.2291 117.568 38.9628 114.954 42.073 119.074C40.8381 114.814 39.3874 113.207 39.3874 113.207L35.428 113.436L32.6737 111.944L30.7227 106.78L39.3874 107.583C39.3874 107.583 47.9306 112.42 53.3314 109.19C58.7323 105.961 62.7422 100.009 62.7422 100.009Z" fill="#9EA7AC"/>
<path d="M14.4903 62.538C14.6515 62.5348 14.8123 62.5549 14.9677 62.5977C14.9172 64.0047 13.2095 65.7927 13.2095 65.7927C14.5523 65.033 15.4635 64.388 15.996 63.2472C16.2774 63.5466 16.4836 63.9085 16.5978 64.3032C16.7119 64.6978 16.7306 65.114 16.6525 65.5173C16.4046 66.5938 11.9999 68.4094 9.95016 69.2472C12.895 67.3398 13.0442 62.577 14.4903 62.538Z" fill="white"/>
<path d="M71.6939 61.9045L69.8576 59.0675C69.8576 59.0675 67.4246 62.7102 65.8408 63.3987C67.2731 57.2014 64.5784 49.9597 62.2831 46.122C62.0831 47.1161 61.6594 48.0516 61.0442 48.8577C60.429 49.6638 59.6384 50.3193 58.7323 50.7746C58.7323 50.7746 58.7965 46.7486 57.883 43.5352C57.6515 42.6359 57.2772 41.7796 56.7744 40.9989C56.6853 42.1194 56.4649 43.2257 56.1179 44.2949C55.9249 44.9424 55.6437 45.5602 55.2824 46.1312C55.2824 46.1312 55.1493 45.6147 54.9358 44.855C54.7063 44.0585 54.3987 42.9912 54.0567 41.9675C53.5839 40.5398 53.056 39.1993 52.6428 38.7908C52.5855 39.6102 52.8265 41.1228 52.5763 42.6928C52.4302 43.7843 51.9701 44.8098 51.2519 45.6445L51.0958 45.4288C51.0097 44.8336 50.8909 44.2436 50.74 43.6614C50.3131 41.9835 49.4363 39.5299 47.7791 38.1986C47.6046 38.0586 47.4072 37.9094 47.1915 37.7579C46.4157 37.2047 45.4034 36.5827 44.3269 35.9584C41.2283 34.1703 37.5856 32.3892 37.4227 32.3088C39.4357 33.5829 41.303 35.0738 42.9911 36.7548C43.6996 37.4717 44.3555 38.2388 44.9536 39.0501C46.737 41.4878 47.4302 43.7119 47.5702 45.5183C47.631 46.2738 47.5916 47.034 47.4532 47.7792C45.3484 45.9774 42.7753 44.0424 40.8381 43.4365C41.8779 44.4143 44.281 47.265 46.5052 49.9942L46.4708 50.0286C46.5695 50.1158 46.6636 50.2122 46.76 50.304C47.8548 51.6445 48.8969 52.939 49.7026 53.9444C53.9213 60.5342 56.033 70.5899 53.5633 76.3741C56.1455 75.9724 58.9733 71.4071 58.6703 67.5372C58.4408 64.5533 57.2472 60.8464 56.5288 58.815C71.5194 73.5532 72.7841 83.9647 73.1881 84.9815C71.1545 82.1583 63.9771 75.4399 63.7521 75.231C63.8807 75.4606 69.5363 85.397 71.4299 89.944C75.2378 84.5729 78.2745 79.0435 80.4183 73.6771L71.6939 61.9045Z" fill="#9EA7AC"/>
<path d="M24.0663 35.4534C25.8015 35.0127 28.1404 34.191 28.7143 32.9286C30.0914 33.5024 33.1901 36.4817 32.3294 38.7816C34.0922 36.6539 32.4763 31.3907 28.2713 29.6578C28.2713 28.7397 27.8535 25.2967 27.8535 25.2967C27.8535 25.2967 19.3609 31.2324 22.23 36.2361C22.6891 34.0303 24.2958 31.7809 24.2958 31.7809L24.0663 35.4534Z" fill="#9EA7AC"/>
<path d="M9.67471 26.3364C9.67471 26.3364 9.34648 20.4765 10.8866 18.5645C10.8866 20.3227 11.8392 23.6326 14.7244 25.3059C12.8376 21.3189 12.4291 12.3374 12.4291 12.3374C7.73518 16.5607 7.36793 20.6762 9.67471 26.3364Z" fill="#F0ABAB"/>
<path d="M13.5423 23.5362C13.5423 23.5362 12.2569 14.0497 19.5583 11.5248C26.8597 9 27.3945 9.99387 27.3945 9.99387C27.3945 9.99387 20.4282 16.9188 18.5575 20.5523C18.5575 18.6403 19.2737 14.9976 21.6378 13.2073C17.6096 13.6664 13.9325 19.4207 13.5423 23.5362Z" fill="#F0ABAB"/>
<path d="M22.1336 16.1728C25.3287 15.3924 31.3539 14.6809 35.8091 16.2692C30.7594 17.1874 27.6607 19.1384 26.6485 20.8208C31.7556 18.5255 37.9299 17.7566 40.9253 20.1713C43.9207 22.5859 47.3912 27.2867 52.5786 22.5859C52.5786 24.3028 53.0514 25.6019 52.5786 27.0572C55.372 27.8628 56.3911 27.0572 56.3911 27.0572C56.3911 27.0572 56.6941 19.6342 52.1838 17.7979C52.1379 20.2929 49.3514 21.9295 47.0561 21.3166C44.7608 20.7038 40.8381 16.345 40.8381 16.345C40.8381 16.345 40.5443 12.1583 30.7571 12.9778C25.3287 12.8722 22.1336 16.1728 22.1336 16.1728Z" fill="#F0ABAB"/>
<path d="M42.4631 23.9998C43.3813 26.2079 45.2175 29.3961 48.4745 29.9676C51.7316 30.5391 54.7224 29.0242 56.4025 29.9676C58.0827 30.911 63.2081 32.6348 65.5838 30.5368C66.4261 31.4986 64.2823 35.0173 62.5241 34.6363C57.704 33.3922 58.8746 33.4634 54.0315 33.4106C59.2831 35.1665 63.3504 37.6156 64.7276 39.7571C66.1048 41.8986 68.1912 46.122 72.9907 45.64C72.4559 46.9483 71.5378 47.6093 69.2425 47.4234C69.9311 48.555 71.8431 50.1433 73.6793 50.1433C72.612 50.7746 69.7773 50.7746 69.7773 50.7746C69.7773 50.7746 74.3886 55.3652 74.9785 58.7691C76.3763 62.5013 77.8338 63.1945 77.8338 63.1945C77.8338 63.1945 79.5714 56.4554 75.286 52.2275C78.6532 50.7746 79.1123 50.2007 79.1123 50.2007L74.905 47.9995C74.905 47.9995 80.0901 45.1373 77.8889 41.8229C73.9869 42.741 72.8002 42.7548 70.1767 40.7693C67.5531 38.7839 65.4942 35.7656 65.4942 35.7656C65.4942 35.7656 71.384 32.8712 67.5623 25.2967C64.6542 27.9248 62.8248 28.494 58.6887 27.4152C54.5525 26.3364 49.4294 27.9271 48.2037 27.4152C46.978 26.9034 42.4631 23.9998 42.4631 23.9998Z" fill="#F0ABAB"/>
<path d="M28.1588 91.4772C27.3945 86.4276 29.0172 78.6786 31.3378 75.2196C31.3378 77.8592 33.034 81.8369 33.034 81.8369C33.034 81.8369 39.2015 74.5516 38.4119 69.2472C40.4915 74.1867 36.6445 82.1445 33.2245 85.4337C29.8045 88.7229 28.1588 91.4772 28.1588 91.4772Z" fill="white"/>
<path d="M25.0992 101.616C22.8521 101.845 19.9531 105.173 20.9676 107.469C21.9821 109.764 25.0992 114.584 25.0992 114.584L22.9714 108.1C22.9714 108.1 25.0992 106.723 25.0992 104.944C25.0992 103.165 27.344 101.386 25.0992 101.616Z" fill="white"/>
<path d="M46.4684 50.0217C51.7477 57.0063 53.6 62.4806 54.0544 66.1026C54.284 67.9756 54.3391 70.6611 54.502 71.7605C55.4446 70.2183 55.8596 68.4111 55.6841 66.6122C54.805 56.7607 46.8242 50.2696 46.4684 50.0217Z" fill="#083751"/>
<path d="M7.28758 60.9565C6.24321 61.4409 6.52095 63.4814 6.67014 64.955L6.86983 64.7254C7.11084 62.6344 7.46891 61.4822 8.57525 61.3559C8.57525 61.3467 8.33424 60.4722 7.28758 60.9565Z" fill="#083751"/>
<path d="M20.4282 48.4242C19.2025 49.0393 17.2997 49.2436 16.1521 49.5099C17.5866 50.0722 19.6891 49.7669 20.8184 49.1793C22.2989 48.4242 22.914 46.6912 22.9806 45.0478C22.1727 46.4135 21.7733 47.7448 20.4282 48.4242Z" fill="#082E44"/>
<path d="M75.9058 66.1669C76.0894 65.5219 76.5484 64.5602 76.3258 62.8043C76.8555 63.8078 77.1852 64.9046 77.2967 66.0338C81.5729 60.8418 77.3656 53.4096 76.7665 52.8885C78.403 52.4295 79.5209 51.1005 80.6685 49.2161C79.0618 49.2666 78.1161 49.1724 76.6839 48.6629C79.5851 47.1526 78.947 43.0256 78.403 40.7234C76.6884 41.9124 73.8538 41.6025 72.0382 40.4939C69.8507 39.1534 69.4996 37.471 66.8324 35.7977C67.6269 35.4928 68.3109 34.9552 68.7949 34.2553C69.3246 33.4729 69.6699 32.5806 69.8048 31.6455C70.2363 29.038 69.4674 25.8636 67.7987 23.7841C64.5509 28.1819 57.9978 26.4994 57.5364 26.3869C57.9358 23.5293 55.8631 16.5171 50.9902 16.4299C51.4722 20.3159 48.5159 21.5048 45.7707 19.4712C44.7126 17.1529 43.2229 14.9793 41.0469 13.6824C38.5451 12.1882 35.2628 11.8921 32.4097 11.9839C30.0777 12.0505 27.8329 12.6863 26.0173 13.3198C26.5773 11.7337 28.6913 10.1477 29.07 9.99158C23.5613 7.1936 14.3273 10.5884 13.1269 16.8224C12.8973 13.7788 12.9524 11.192 13.0373 10.8661C7.46204 13.2027 7.32202 20.5569 7.38859 23.1827L0.704659 16.8178L7.51713 32.5521C7.34039 33.0548 7.10168 33.6539 6.82853 34.2874C6.36947 35.3478 5.85303 36.5092 5.41004 37.5215C5.03799 38.299 4.71973 39.1012 4.45748 39.9224C4.19582 41.1182 6.03206 45.4931 5.83467 47.024C5.63003 48.5339 5.33493 50.03 4.95097 51.5045C4.42764 53.6001 3.77807 55.6957 3.20884 57.3047C2.96094 58.0071 2.72453 58.6176 2.52025 59.0928C0.22953 60.968 0.179034 64.0437 0.15149 65.4829C0.105584 67.8792 3.7643 70.6083 5.18739 71.4759C5.41692 71.6136 5.68318 71.7697 5.97468 71.935C6.97454 72.5035 8.01571 72.9961 9.08941 73.4086C9.77819 73.6866 10.5061 73.8554 11.247 73.909C13.4849 73.9526 18.9845 70.6565 19.7213 69.7131C20.4581 68.7698 21.1329 63.6076 21.9064 61.776C23.2331 58.6245 24.2017 59.9397 28.4342 55.0989C29.2766 56.724 31.1519 60.8165 32.1572 66.704C26.9331 71.7238 25.0739 78.2907 24.888 84.1231C24.3543 84.647 23.8544 85.2044 23.3915 85.7917C22.2776 87.1716 21.33 88.6777 20.5682 90.2791C19.5652 92.4091 17.0449 93.8001 14.2814 94.9592C13.4252 95.3173 12.5438 95.6478 11.6785 95.9852C10.4023 96.4741 9.15368 96.9469 8.06341 97.4519C4.41617 99.1435 2.91274 101.258 2.2999 103.668C1.82018 105.561 2.85536 108.329 3.32131 109.431C3.05735 111.566 2.36187 117.726 2.94947 119.264C3.6656 121.137 3.83775 121.543 6.33734 124.58C7.2348 129.274 9.52552 135.542 14.0702 137C18.0549 136.371 20.5407 125.902 20.6095 121.812L20.2836 121.105C20.2836 121.105 15.6425 116.035 15.4336 114.332C15.2248 112.628 15.4841 111.405 14.185 107.609C15.1126 107.186 16.0768 106.849 17.0656 106.601C17.1964 107.712 17.6876 109.56 19.3196 111.88C22.0579 115.766 23.7587 123.077 25.5743 124.224C27.3899 125.372 30.8535 124.323 30.8535 124.323C30.8535 124.323 40.3698 132.657 49.333 128.03C49.6796 125.879 48.9176 122.494 47.9398 119.485C47.6345 118.541 47.304 117.637 46.9826 116.815C46.1999 114.823 45.4539 113.342 45.1464 113.074C45.1464 113.074 42.4976 111.43 36.5986 112.638C36.2084 112.231 34.4961 111.839 33.8443 111.747C33.3026 110.698 32.2743 107.792 32.777 107.489C33.3141 107.166 36.3026 107.719 38.2857 108.155C40.4892 108.637 43.0163 111.439 47.7286 111.527C52.7783 111.623 60.2357 108.008 62.5976 103.493C65.2532 98.4274 64.3512 91.1375 60.6489 88.2684C63.1393 93.5981 62.4851 98.0877 60.3895 101.482C57.2587 106.521 51.4103 108.683 47.8893 108.616C45.2208 108.537 42.6155 107.785 40.3147 106.431C40.3147 106.431 30.5276 104.026 29.8849 106.241C29.598 107.246 30.1328 108.951 30.803 110.521C31.343 111.758 31.9561 112.961 32.6392 114.125C32.6392 114.125 34.9736 114.01 35.1824 115.693C35.757 115.212 36.41 114.834 37.1128 114.575C37.5423 114.416 37.9857 114.298 38.4372 114.221C39.3126 114.81 39.9794 115.66 40.3423 116.65C40.7417 117.768 40.7027 118.968 40.5259 120.093C40.3216 121.399 39.9268 122.599 39.8213 123.455C39.7123 124.283 39.9351 125.119 40.441 125.783C37.4686 125.2 34.1955 123.947 32.4832 121.798C28.0119 122.101 27.1925 123.214 25.7579 118.791C24.3234 114.368 21.1168 109.876 19.8039 108.049C19.4215 107.459 19.2702 106.749 19.3793 106.055C19.515 105.057 19.9003 104.11 20.4994 103.3C21.206 102.293 22.172 101.495 23.2951 100.991C26.4396 99.6141 39.213 96.3341 41.0997 93.8138C42.9865 91.2936 42.128 85.918 51.307 82.4934C48.6834 81.6418 41.0974 85.4176 39.213 92.0992C35.6507 94.429 26.5521 97.0755 24.0755 97.8077C21.9419 98.4228 20.0299 99.6378 18.5667 101.308C17.9196 102.042 17.4061 102.885 17.0495 103.796C17.0495 103.821 17.0289 103.847 17.022 103.872C14.9975 104.586 11.6992 105.731 11.6693 107.315C11.6349 109.089 12.8973 111.655 12.817 115.332C12.7986 116.278 14.4007 118.261 15.8973 119.909C15.5668 123.435 11.7061 124.796 10.1361 125.973C9.70365 126.293 9.36 126.718 9.13761 127.208C8.76771 125.968 8.51941 124.695 8.39623 123.407C6.41997 120.706 5.69695 119.964 5.33199 118.817C5.06115 117.963 5.45594 113.34 5.69695 110.783C5.99075 110.749 6.63114 111.198 7.89585 111.901C6.23405 109.326 4.13155 106.417 4.97163 103.796C5.573 101.96 6.96396 101.251 9.36944 99.9216C10.0741 99.5314 11.4077 98.9852 12.9708 98.3471C13.7948 98.0097 14.6808 97.6447 15.5736 97.2614C18.7526 95.9026 22.0005 94.3165 22.7029 92.9003C23.7679 90.7335 24.5391 89.6869 25.0923 88.7688C25.2998 90.6373 25.7053 92.4785 26.3019 94.2614C26.1573 81.4077 30.826 73.3535 32.6691 70.6818C32.8773 73.2475 32.8773 75.8259 32.6691 78.3917C35.6828 75.5708 35.389 61.4638 30.119 52.5443C32.07 48.2979 30.2269 44.0516 28.7418 42.422C29.412 45.438 29.9606 47.7012 28.7831 50.5175C28.9239 49.1004 28.7167 47.6704 28.1795 46.3515C28.1565 46.2872 28.0624 46.3309 28.0762 46.3928C28.5146 48.2681 28.2644 50.1709 27.6171 51.9727C27.4037 52.5557 27.1581 53.1341 26.8872 53.6942C25.0808 55.9115 22.2048 56.6092 20.7243 59.2397C19.6111 58.7622 17.1528 57.8854 15.3854 58.597C14.8944 58.7531 14.4283 58.9788 14.0014 59.2672C13.6073 59.5205 13.278 59.8624 13.0396 60.2657C13.6043 59.6344 15.3349 59.118 16.7121 59.1387C16.9416 59.1547 18.1283 59.3177 18.7779 60.8464C18.7779 60.8785 18.7618 60.906 18.7595 60.9175L18.7871 60.8624C19.1038 61.6291 19.2852 62.7377 19.1497 64.3352C18.771 65.9121 18.4038 67.3375 17.8644 67.9917C16.8407 69.2403 13.4849 71.2441 11.6808 71.5907C10.8988 71.7187 10.0964 71.6191 9.36944 71.3038C10.0072 70.7902 10.7 70.3491 11.4352 69.9886C15.1077 68.2189 16.9899 67.1378 17.5224 66.1462C18.2477 64.8012 16.8338 62.5747 15.2271 61.6451C15.8697 61.4477 16.5859 61.6704 17.1092 61.8012C16.377 60.9772 14.2768 60.5181 13.4826 61.2871C11.5454 63.1623 11.566 67.3352 8.23556 68.7216C7.37338 69.0693 6.47128 69.3083 5.55005 69.4331L5.53169 69.4193C3.67249 68.1317 2.52484 66.3574 2.39171 64.9481C2.24251 63.4561 2.5432 61.5051 3.79644 60.3575C3.95932 60.2062 4.13694 60.0716 4.32665 59.9558C4.73751 58.9688 5.24477 57.431 5.76581 55.7531C6.85608 52.177 7.94864 47.9697 8.04734 47.0745C8.19195 45.7593 6.58294 42.2269 6.73213 40.5742C6.80788 39.6974 7.78109 37.9117 8.4582 36.7617C8.68773 36.3784 8.87595 36.0731 8.99071 35.8803L9.28222 36.5437L9.55306 37.1657C9.60603 37.2251 9.66277 37.2811 9.72291 37.3333C8.88283 39.399 8.80479 42.0249 9.32124 44.109C9.44289 42.7892 9.55077 41.4878 9.91802 40.207C10.1475 39.3967 10.4413 38.6163 10.7328 37.829C11.5477 38.0058 12.8285 37.8841 14.7152 36.702C15.5111 36.2365 16.1503 35.5445 16.5514 34.7143C16.5581 34.6963 16.5658 34.6787 16.5744 34.6615L17.9516 33.0846C18.0453 33.4701 18.188 33.8419 18.3762 34.191C18.3762 33.406 18.7917 32.217 19.3494 31.1336C19.5124 30.8146 19.6891 30.5047 19.8682 30.2155C21.367 27.8215 24.227 27.1008 26.0448 26.2148C25.3241 26.8873 24.5621 27.5254 23.8597 28.2186C23.1983 28.8487 22.6501 29.5879 22.2392 30.4037C21.7828 31.3388 21.5938 32.3817 21.6929 33.4175V33.5414C21.7113 33.4955 21.7297 33.4473 21.7457 33.4014C22.2048 32.1727 22.8717 31.0322 23.7174 30.0296C24.304 29.3383 24.9541 28.7036 25.6592 28.1337C26.1183 27.7527 26.8069 27.2454 27.3922 26.6624C27.2853 27.526 27.122 28.3817 26.9033 29.2239C26.6911 30.0187 26.3323 30.7668 25.8451 31.4297C25.5468 31.8245 25.2025 32.2147 24.8696 32.6118C23.7564 33.9408 22.7924 35.3249 24.3279 37.0372C23.7794 35.5567 25.7809 34.1405 26.6232 33.2132C26.9911 32.8146 27.32 32.3819 27.6056 31.9209C27.9004 31.4466 28.1531 30.9474 28.3608 30.429C28.8279 30.7107 29.2675 31.0358 29.6737 31.3999C32.5405 33.9477 33.9958 38.2996 30.8053 39.1879C32.3684 40.0762 38.9238 40.5857 37.9529 33.1673C39.8442 34.3356 41.8549 35.3203 43.8495 36.445C51.9818 41.0356 49.8517 46.363 49.1654 47.024C51.0292 46.9781 53.2281 45.5688 53.1639 41.1458C53.1639 41.1572 53.1753 41.171 53.1799 41.1848C54.6512 45.5229 54.665 47.9972 54.665 47.9972C55.8264 46.9735 57.1049 45.64 57.2725 43.1266C57.3551 43.5467 58.5441 47.6989 58.2663 51.8993C59.0835 51.6238 61.2043 51.1487 62.4231 47.8825C62.8064 49.0301 64.0092 51.4723 64.7758 54.1739C65.2854 55.9665 65.6641 57.8831 65.5861 59.7561C65.4529 62.8341 63.9793 64.3467 63.8623 64.6956C63.9679 64.7117 67.4016 64.9894 69.5018 61.4317C71.5676 65.1638 74.7994 70.8883 79.7297 76.2043C79.8904 76.3787 80.136 76.6312 80.4183 76.9112C80.7649 75.7865 81.1253 74.6664 81.5086 73.5532C79.7297 71.9258 77.7213 69.5433 75.9058 66.1669ZM40.4915 114.125C41.3417 114.182 42.1827 114.336 42.998 114.584C43.4042 115.553 43.9505 116.879 44.4991 118.273C44.8434 119.149 45.1877 120.054 45.4975 120.921C46.317 123.201 46.9115 125.204 46.6452 125.666C46.3789 126.127 44.8595 126.29 42.8396 126.125C41.6277 124.396 41.6644 123.111 41.9215 120.997C41.9559 120.703 41.9972 120.391 42.0385 120.061C42.1189 119.25 42.0583 118.431 41.8595 117.641C41.5512 116.417 41.0916 115.236 40.4915 114.125V114.125ZM14.1643 125.198C15.4933 124.199 16.4068 122.443 16.9692 121.043C17.504 121.599 17.9562 122.048 18.2155 122.303C17.9493 125.847 16.9508 132.487 13.221 134.158C12.0733 133.699 11.068 132.171 10.2692 130.369C10.6824 127.727 11.8713 126.926 14.1643 125.198ZM14.4903 62.5357C14.6515 62.5325 14.8123 62.5526 14.9677 62.5954C14.9172 64.0024 13.2095 65.7905 13.2095 65.7905C14.5522 65.0307 15.4635 64.3857 15.996 63.245C16.2774 63.5443 16.4836 63.9062 16.5978 64.3009C16.7119 64.6956 16.7306 65.1117 16.6524 65.515C16.4045 66.5915 11.9999 68.4071 9.95015 69.2449C12.895 67.3398 13.0442 62.577 14.4903 62.538V62.5357ZM13.9761 35.3593C13.1383 36.0043 12.0067 36.3922 11.169 36.1718L11.1253 36.0777L9.88818 33.5139L4.60897 22.5836L8.13456 26.1322C7.94405 26.4742 7.69157 26.8552 7.31284 26.9447C7.53325 26.9951 7.7635 26.9813 7.97627 26.9048C8.18904 26.8283 8.37542 26.6924 8.51329 26.5132L10.1751 28.1934C9.83538 28.9508 9.27762 29.8827 8.41689 30.0296C9.52093 30.3463 10.3656 29.644 10.7581 28.7855L12.8744 30.9225C12.6448 31.7488 12.1858 32.7587 11.0611 33.2178C10.7906 33.3305 10.5067 33.4076 10.2164 33.4473C11.4742 33.7457 12.3763 33.3716 12.9478 32.7587C13.2369 32.4357 13.4502 32.0523 13.5721 31.6363L14.3365 32.4052L15.0641 33.142C15.3051 33.9064 14.7726 34.751 13.9761 35.3616V35.3593ZM74.8017 63.9381C74.1315 63.3023 71.5883 60.3506 70.5049 58.9275C71.0305 57.2864 70.9364 56.1525 70.5761 54.4815C70.117 57.2359 68.1476 60.3988 67.1331 61.6681C67.5922 59.9512 67.4131 58.1058 67.1331 56.3774C66.7915 54.4397 66.2269 52.5481 65.4506 50.7401C63.7774 46.6545 63.7774 46.6545 62.3313 43.1014C61.4935 46.4961 60.7774 48.0799 59.6619 49.4525C59.7217 48.366 59.65 47.2762 59.4484 46.2069C59.3681 45.7593 58.6772 42.2796 55.4156 37.6018C55.7025 39.7709 56.5632 42.3416 55.5395 44.7678C55.4706 42.9499 54.2725 37.6867 50.6367 35.5865C51.6536 37.3401 52.5487 42.8351 51.3253 44.2421C51.4447 41.2123 49.3353 38.4212 47.0354 36.5827C45.3369 35.2262 35.9353 29.9814 35.9032 29.9814C35.9192 30.0043 37.6545 37.5766 33.8558 38.1756C34.6706 36.3394 33.4724 33.0663 31.5467 30.9339C30.7341 30.0319 29.7908 29.3272 28.813 29.0311C28.8336 28.9324 28.852 28.8337 28.8681 28.7327C29.1848 26.947 29.0609 24.872 28.4572 23.2998C26.8115 25.0671 22.673 25.1429 20.4282 27.0893C19.4504 27.9225 18.4267 29.1987 18.0113 30.6585L17.2951 31.6478L16.7672 32.3754C16.7413 32.2277 16.6867 32.0866 16.6065 31.9599L16.4918 31.8498L10.423 26.0702C9.01137 23.3847 8.62576 16.9027 11.6533 14.0175C11.5178 15.7275 11.6349 23.9195 14.7244 25.2967C12.5829 20.247 14.8575 10.8477 25.5972 10.7903C23.6302 12.257 22.1244 14.6579 21.4657 16.2646C20.7559 17.0404 20.1268 17.8864 19.5881 18.7895C20.364 18.3304 22.875 14.0634 32.2972 14.0359C34.7991 14.0359 37.5168 14.309 39.734 15.5715C35.9238 14.6281 31.8634 16.7191 28.7005 18.8469C30.9315 18.1307 34.1725 15.9846 38.7379 16.8775C41.8044 17.4766 43.0645 20.3021 45.5962 21.7619C47.662 22.9509 50.5954 22.8637 51.9474 20.6418C52.2827 20.0893 52.4509 19.4516 52.4317 18.8056C53.0109 19.4206 53.517 20.1008 53.9397 20.8323C54.8794 22.4604 55.2728 24.3468 55.0621 26.2148C53.984 26.1469 52.9018 26.1977 51.8349 26.3663C50.6872 26.5063 49.5396 26.644 48.3919 26.5132C46.7827 26.3123 45.2327 25.7792 43.8403 24.9478C43.3612 24.6628 42.9012 24.3469 42.4632 24.0021C42.7254 24.3808 43.0129 24.7412 43.3239 25.0809C44.4757 26.3611 45.9763 27.2769 47.6414 27.7159C50.3338 28.4412 52.9596 27.4313 55.6497 27.9064C57.3872 28.2117 59.3773 28.9852 61.4132 29.1803C62.9832 29.3295 64.5784 29.1344 66.1048 28.1199C66.7234 27.6949 67.2439 27.1423 67.6312 26.4994C68.1633 27.9629 68.2299 29.5551 67.8217 31.0579L67.7528 31.2874C67.5105 32.1351 67.0717 32.9136 66.472 33.5598L66.4055 33.6286C65.8248 34.2002 65.1224 34.3953 64.4614 34.7901C62.2395 33.8719 59.7537 33.5598 57.3459 33.4129C59.5081 34.1015 61.7254 34.7901 63.7728 35.7679C65.8202 36.7457 67.1974 38.2927 68.6296 40.0142C69.8209 41.451 71.2096 42.7525 73.0756 43.1955C74.3575 43.4996 75.6992 43.4343 76.9455 43.0073C77.2806 44.8779 75.5454 47.9284 73.1284 48.3324C74.2982 49.0779 75.5576 49.6725 76.8767 50.102C75.9585 50.9307 73.7665 51.5458 72.3549 51.6192C75.7451 53.3958 77.4482 58.1287 77.3725 61.9734C76.8308 60.7982 76.2041 59.4485 74.7833 58.4225C75.1873 60.082 75.1139 62.0881 74.8109 63.9404L74.8017 63.9381Z" fill="#083751"/>
<path d="M21.0204 44.8068C20.8689 43.9759 20.5614 43.0578 19.9784 42.438C20.8334 41.831 21.8167 41.4289 22.8521 41.2628C20.2905 40.6477 18.569 41.6163 16.618 43.5122C15.3992 44.6966 13.9486 47.6736 13.6525 48.5458C13.3013 49.5787 10.8981 48.7341 10.8981 48.7341C11.3985 49.3676 12.4383 50.1755 13.5446 50.1962C14.3732 50.2122 14.3939 49.7669 14.7749 48.9774C17.0312 47.9422 19.4711 47.9284 20.3938 47.1732C21.0985 46.5971 21.1742 45.7249 21.0204 44.8068ZM15.2822 47.9973C16.0717 46.5788 17.3801 44.5864 19.0878 43.1266C19.5468 43.5283 19.8177 44.4281 19.9095 44.9973C20.263 47.1755 18.3234 46.3997 15.273 47.9996L15.2822 47.9973Z" fill="#083751"/>
<path d="M7.14298 58.1586C4.9349 59.7767 4.95785 63.8486 5.86909 65.274C5.62808 63.3505 6.13993 59.3361 7.97847 59.3062C9.18121 59.281 9.78947 59.6482 10.0695 59.9053L10.2715 60.1463C10.2971 59.9603 10.2878 59.7711 10.2439 59.5885C10.221 57.2335 11.5867 55.115 12.4291 52.8931C11.0611 54.4025 9.91003 56.0951 9.00907 57.9221C8.49262 57.6444 7.84535 57.6444 7.14298 58.1586Z" fill="#083751"/>
</g>
<path d="M139.26 55.968L130.06 58.82C129.14 58.2067 128.22 57.348 127.3 56.244C126.38 55.14 125.92 53.6067 125.92 51.644C125.92 47.964 128.159 45.388 132.636 43.916L142.94 40.42H146.344C148.981 40.42 151.067 41.1867 152.6 42.72C154.133 44.2533 154.9 46.3387 154.9 48.976V96.908C154.225 97.0307 153.213 97.184 151.864 97.368C150.576 97.6133 149.257 97.736 147.908 97.736C146.559 97.736 145.332 97.644 144.228 97.46C143.185 97.276 142.296 96.908 141.56 96.356C140.824 95.804 140.241 95.068 139.812 94.148C139.444 93.1667 139.26 91.9093 139.26 90.376V55.968ZM165.533 39.868C165.533 37.5373 166.3 35.5747 167.833 33.98C169.428 32.3853 171.513 31.588 174.089 31.588C176.665 31.588 178.72 32.3853 180.253 33.98C181.848 35.5747 182.645 37.5373 182.645 39.868C182.645 42.1987 181.848 44.1613 180.253 45.756C178.72 47.3507 176.665 48.148 174.089 48.148C171.513 48.148 169.428 47.3507 167.833 45.756C166.3 44.1613 165.533 42.1987 165.533 39.868ZM181.909 96.908C181.235 97.0307 180.223 97.184 178.873 97.368C177.585 97.6133 176.267 97.736 174.917 97.736C173.568 97.736 172.341 97.644 171.237 97.46C170.195 97.276 169.305 96.908 168.569 96.356C167.833 95.804 167.251 95.068 166.821 94.148C166.453 93.1667 166.269 91.9093 166.269 90.376V52.932C166.944 52.8093 167.925 52.656 169.213 52.472C170.563 52.2267 171.912 52.104 173.261 52.104C174.611 52.104 175.807 52.196 176.849 52.38C177.953 52.564 178.873 52.932 179.609 53.484C180.345 54.036 180.897 54.8027 181.265 55.784C181.695 56.704 181.909 57.9307 181.909 59.464V96.908ZM220.202 68.664C220.202 66.7627 219.65 65.3827 218.546 64.524C217.503 63.604 216.062 63.144 214.222 63.144C212.995 63.144 211.769 63.2973 210.542 63.604C209.377 63.9107 208.365 64.3707 207.506 64.984V96.908C206.893 97.092 205.911 97.276 204.562 97.46C203.274 97.644 201.925 97.736 200.514 97.736C199.165 97.736 197.938 97.644 196.834 97.46C195.791 97.276 194.902 96.908 194.166 96.356C193.43 95.804 192.847 95.068 192.418 94.148C192.05 93.1667 191.866 91.9093 191.866 90.376V62.776C191.866 61.12 192.203 59.7707 192.878 58.728C193.614 57.6853 194.595 56.7347 195.822 55.876C197.907 54.404 200.514 53.208 203.642 52.288C206.831 51.368 210.358 50.908 214.222 50.908C221.153 50.908 226.489 52.4413 230.23 55.508C233.971 58.5133 235.842 62.7147 235.842 68.112V96.908C235.229 97.092 234.247 97.276 232.898 97.46C231.61 97.644 230.261 97.736 228.85 97.736C227.501 97.736 226.274 97.644 225.17 97.46C224.127 97.276 223.238 96.908 222.502 96.356C221.766 95.804 221.183 95.068 220.754 94.148C220.386 93.1667 220.202 91.9093 220.202 90.376V68.664ZM270.711 63.236C269.177 63.236 267.705 63.4813 266.295 63.972C264.945 64.4627 263.749 65.1987 262.707 66.18C261.725 67.1 260.928 68.2653 260.315 69.676C259.701 71.0867 259.395 72.7427 259.395 74.644C259.395 78.4467 260.468 81.2987 262.615 83.2C264.823 85.1013 267.491 86.052 270.619 86.052C272.459 86.052 274.053 85.8373 275.403 85.408C276.752 84.9787 277.948 84.5187 278.991 84.028C280.217 84.8867 281.137 85.8373 281.751 86.88C282.364 87.8613 282.671 89.0573 282.671 90.468C282.671 92.9827 281.475 94.9453 279.083 96.356C276.691 97.7053 273.379 98.38 269.147 98.38C265.283 98.38 261.787 97.828 258.659 96.724C255.531 95.5587 252.832 93.964 250.563 91.94C248.355 89.8547 246.637 87.3707 245.411 84.488C244.184 81.6053 243.571 78.416 243.571 74.92C243.571 70.872 244.215 67.3453 245.503 64.34C246.852 61.2733 248.661 58.7587 250.931 56.796C253.2 54.8333 255.807 53.3613 258.751 52.38C261.756 51.3987 264.915 50.908 268.227 50.908C272.643 50.908 276.047 51.7053 278.439 53.3C280.831 54.8947 282.027 56.9493 282.027 59.464C282.027 60.6293 281.751 61.7333 281.199 62.776C280.647 63.7573 280.003 64.616 279.267 65.352C278.224 64.8613 276.967 64.4013 275.495 63.972C274.023 63.4813 272.428 63.236 270.711 63.236ZM334.674 96.908C334.061 97.092 333.08 97.276 331.73 97.46C330.442 97.644 329.093 97.736 327.682 97.736C326.333 97.736 325.106 97.644 324.002 97.46C322.96 97.276 322.07 96.908 321.334 96.356C320.598 95.804 320.016 95.068 319.586 94.148C319.218 93.1667 319.034 91.9093 319.034 90.376V69.952C319.034 67.4373 318.39 65.6893 317.102 64.708C315.876 63.6653 314.342 63.144 312.502 63.144C311.276 63.144 310.11 63.2973 309.006 63.604C307.902 63.9107 307.013 64.2787 306.338 64.708V96.908C305.725 97.092 304.744 97.276 303.394 97.46C302.106 97.644 300.757 97.736 299.346 97.736C297.997 97.736 296.77 97.644 295.666 97.46C294.624 97.276 293.734 96.908 292.998 96.356C292.262 95.804 291.68 95.068 291.25 94.148C290.882 93.1667 290.698 91.9093 290.698 90.376V37.016C291.373 36.8933 292.354 36.74 293.642 36.556C294.992 36.3107 296.341 36.188 297.69 36.188C299.04 36.188 300.236 36.28 301.278 36.464C302.382 36.648 303.302 37.016 304.038 37.568C304.774 38.12 305.326 38.8867 305.694 39.868C306.124 40.788 306.338 42.0147 306.338 43.548V52.564C307.136 52.2573 308.332 51.92 309.926 51.552C311.582 51.1227 313.392 50.908 315.354 50.908C321.426 50.908 326.149 52.4413 329.522 55.508C332.957 58.5133 334.674 63.0213 334.674 69.032V96.908Z" fill="black"/>
<defs>
<clipPath id="clip0">
<rect width="102.162" height="128" fill="white" transform="translate(0 9)"/>
</clipPath>
</defs>
</svg>
