<svg width="121" height="27" viewBox="0 0 121 27" fill="none" xmlns="http://www.w3.org/2000/svg">
<g clip-path="url(#clip0)">
<path fill-rule="evenodd" clip-rule="evenodd" d="M118.781 15.3564C118.781 13.7775 117.851 12.5888 116.383 12.5888C114.915 12.5888 113.984 13.7775 113.984 15.3564C113.984 16.9352 114.915 18.1239 116.383 18.1239C117.854 18.1269 118.781 16.9382 118.781 15.3564ZM118.709 11.5293V7.39303C118.709 7.11988 118.892 6.88275 119.156 6.81371L121.35 6.22839V20.225H118.916V19.0364C118.304 19.9278 117.205 20.4501 115.83 20.4501C113.006 20.4501 111.352 18.1839 111.352 15.3594C111.352 12.5348 113.006 10.2686 115.83 10.2686C117.202 10.2656 118.208 10.8599 118.709 11.5293ZM103.734 10.4877V11.6764C104.181 10.8389 105.184 10.2626 106.633 10.2626C108.975 10.2626 110.22 11.8234 110.22 14.1467V20.225H107.582V14.4469C107.582 13.3122 107.099 12.5318 105.928 12.5318C104.646 12.5318 103.941 13.3483 103.941 14.651V20.225H101.303V10.4877H103.734ZM95.1343 20.4501C92.2918 20.4501 90.7099 19.2225 90.7099 16.0647V10.4877H93.3483V16.1008C93.3483 17.4575 93.9607 18.0878 95.1313 18.0878C96.3019 18.0878 96.9143 17.4545 96.9143 16.1008V10.4877H99.5527V16.0617C99.5587 19.2225 97.9768 20.4501 95.1343 20.4501ZM81.9992 15.3564C81.9992 17.1033 83.0768 18.1239 84.4695 18.1239C85.8623 18.1239 86.9399 17.1003 86.9399 15.3564C86.9399 13.6124 85.8623 12.5888 84.4695 12.5888C83.0798 12.5888 81.9992 13.6094 81.9992 15.3564ZM84.4725 20.4501C81.3508 20.4501 79.3607 18.1269 79.3607 15.3594C79.3607 12.5919 81.3478 10.2686 84.4725 10.2686C87.5942 10.2686 89.5843 12.5919 89.5843 15.3594C89.5813 18.1269 87.5942 20.4501 84.4725 20.4501ZM71.3194 15.3564C71.3194 16.9352 72.2499 18.1239 73.7177 18.1239C75.1855 18.1239 76.116 16.9352 76.116 15.3564C76.116 13.7775 75.1855 12.5888 73.7177 12.5888C72.2499 12.5888 71.3194 13.7775 71.3194 15.3564ZM71.3944 19.1864V23.2356C71.3944 23.5088 71.2113 23.7459 70.9472 23.8149L68.756 24.3913V10.4877H71.1903V11.6764C71.8026 10.7849 72.9012 10.2626 74.276 10.2626C77.1005 10.2626 78.7544 12.5288 78.7544 15.3534C78.7544 18.1779 77.1005 20.4441 74.276 20.4441C72.8982 20.4501 71.8957 19.8558 71.3944 19.1864ZM60.9187 14.687V20.225H58.2803V14.4469C58.2803 13.3693 57.8901 12.5318 56.7194 12.5318C55.4918 12.5318 54.8224 13.3303 54.8224 14.633V20.228H52.184V10.4877H54.6183V11.6764C55.0655 10.8389 56.0321 10.2626 57.4248 10.2626C58.7455 10.2626 59.6911 10.7819 60.2494 11.6373C61.1048 10.6888 62.0894 10.2626 63.4821 10.2626C65.8234 10.2626 67.012 11.8805 67.012 14.1467V20.225H64.3736V14.4469C64.3736 13.3693 63.9834 12.5318 62.8127 12.5318C61.5671 12.5318 60.9187 13.3303 60.9187 14.687ZM43.3802 15.3564C43.3802 17.1033 44.4578 18.1239 45.8505 18.1239C47.2433 18.1239 48.3209 17.1003 48.3209 15.3564C48.3209 13.6124 47.2433 12.5888 45.8505 12.5888C44.4578 12.5888 43.3802 13.6094 43.3802 15.3564ZM45.8505 20.4501C42.7288 20.4501 40.7388 18.1269 40.7388 15.3594C40.7388 12.5919 42.7258 10.2686 45.8505 10.2686C48.9752 10.2686 50.9623 12.5919 50.9623 15.3594C50.9623 18.1269 48.9722 20.4501 45.8505 20.4501ZM27.0483 13.6094C27.0483 9.48516 29.8909 6.75068 33.6819 6.75068C36.9717 6.75068 39.5741 8.70174 40.0754 11.9165H37.1758C36.7856 10.2626 35.4469 9.33208 33.6819 9.33208C31.2656 9.33208 29.9089 11.004 29.9089 13.6064C29.9089 16.2088 31.2656 17.8807 33.6819 17.8807C35.4469 17.8807 36.7856 16.9502 37.1758 15.2963H40.0754C39.5741 18.5111 36.9717 20.4621 33.6819 20.4621C29.8909 20.4681 27.0483 17.7366 27.0483 13.6094Z" fill="black"/>
<path fill-rule="evenodd" clip-rule="evenodd" d="M1.08359 21.0428C0.411223 20.6315 0 19.8992 0 19.1127V14.7213C0 14.5532 0.0450245 14.3912 0.12907 14.2471C0.390212 13.7968 0.969527 13.6438 1.41977 13.9079L11.3312 19.686C11.9105 20.0252 12.2677 20.6436 12.2677 21.3159V25.8664C12.2677 26.0735 12.2106 26.2806 12.1026 26.4577C11.7754 26.992 11.079 27.1601 10.5447 26.8329L1.08359 21.0428ZM15.8576 12.7042C16.4369 13.0434 16.7941 13.6618 16.7941 14.3341V23.5671C16.7941 23.8403 16.647 24.0924 16.4099 24.2245L14.2397 25.4462C14.2127 25.4612 14.1827 25.4732 14.1527 25.4822V20.3554C14.1527 19.692 13.8045 19.0767 13.2342 18.7345L4.52946 13.5267V7.73955C4.52946 7.57145 4.57449 7.40937 4.65853 7.26529C4.91967 6.81504 5.49899 6.66196 5.94923 6.9261L15.8576 12.7042ZM20.195 5.88454C20.7773 6.22072 21.1345 6.84506 21.1345 7.51743V21.0038C21.1345 21.2799 20.9814 21.535 20.7383 21.6671L18.6821 22.7777V13.3886C18.6821 12.7253 18.334 12.1129 17.7667 11.7707L8.86982 6.43384V0.943854C8.86982 0.775763 8.91484 0.613675 8.99589 0.469596C9.25703 0.0193516 9.83634 -0.133731 10.2866 0.127411L20.195 5.88454Z" fill="#00D395"/>
</g>
<defs>
<clipPath id="clip0">
<rect width="121" height="27" fill="white"/>
</clipPath>
</defs>
</svg>
