<!DOCTYPE svg PUBLIC "-//W3C//DTD SVG 20010904//EN" "http://www.w3.org/TR/2001/REC-SVG-20010904/DTD/svg10.dtd">
<svg version="1.0" xmlns="http://www.w3.org/2000/svg" width="400px" height="229px" viewBox="0 0 4000 2290" preserveAspectRatio="xMidYMid meet">
<g id="layer101" fill="#32343f" stroke="none">
<path d="M2083 1449 c-36 -10 -83 -61 -83 -90 0 -30 62 -26 94 6 46 46 108 29 127 -35 15 -48 8 -58 -23 -36 -32 23 -106 20 -146 -4 -37 -23 -72 -88 -72 -135 0 -47 35 -112 72 -135 39 -24 115 -27 144 -5 25 19 34 19 34 0 0 -11 11 -15 40 -15 l40 0 0 168 c0 144 -3 173 -20 210 -31 68 -116 97 -207 71z m100 -221 c57 -30 64 -92 16 -132 -35 -30 -65 -33 -97 -10 -35 24 -44 59 -28 98 22 52 63 69 109 44z"/>
<path d="M3070 1225 l0 -225 40 0 c29 0 40 4 40 15 0 19 9 19 34 0 29 -22 105 -19 144 5 35 22 71 87 72 130 0 79 -51 151 -120 170 -38 10 -58 6 -122 -28 -5 -2 -8 33 -8 77 l0 81 -40 0 -40 0 0 -225z m215 0 c28 -27 34 -88 12 -116 -52 -68 -147 -37 -147 48 1 81 82 122 135 68z"/>
<path d="M2730 1308 c-59 -30 -83 -74 -83 -147 0 -67 22 -113 69 -142 38 -23 112 -25 140 -4 25 19 34 19 34 0 0 -11 11 -15 40 -15 l40 0 0 160 0 160 -40 0 c-29 0 -40 -4 -40 -15 0 -19 -5 -19 -33 -1 -42 27 -79 28 -127 4z m135 -83 c38 -37 35 -95 -6 -129 -38 -33 -73 -33 -104 -1 -54 53 -18 155 55 155 19 0 40 -9 55 -25z"/>
<path d="M2410 1160 l0 -160 40 0 c33 0 40 3 40 20 0 11 2 20 5 20 3 0 14 -9 25 -20 11 -11 33 -20 50 -20 28 0 30 2 30 40 0 37 -2 40 -29 40 -16 0 -39 9 -52 19 -22 17 -24 28 -27 120 l-4 101 -39 0 -39 0 0 -160z"/>
<path d="M3480 1080 l0 -240 40 0 40 0 0 95 c0 52 3 95 8 95 4 0 16 -7 26 -15 11 -9 41 -15 69 -15 41 0 53 5 77 30 34 36 40 66 40 191 l0 99 -45 0 -45 0 0 -105 c0 -92 -3 -108 -20 -125 -25 -25 -51 -25 -81 -1 -22 18 -24 28 -27 125 l-4 106 -39 0 -39 0 0 -240z"/>
<path d="M2773 879 c-101 -29 -145 -178 -76 -260 36 -42 74 -59 135 -59 90 0 158 61 158 143 l0 37 -120 0 c-130 0 -144 7 -98 50 26 24 84 27 116 4 14 -9 38 -14 65 -12 l42 3 -40 41 c-24 25 -56 46 -80 53 -46 13 -58 13 -102 0z m121 -198 c10 -15 -28 -51 -60 -57 -24 -4 -37 0 -59 18 -16 14 -25 30 -21 36 8 14 132 16 140 3z"/>
<path d="M2069 851 c-28 -28 -29 -33 -29 -120 l0 -91 -35 0 c-34 0 -35 -1 -35 -40 0 -39 1 -40 35 -40 34 0 35 -1 35 -40 l0 -40 40 0 40 0 0 40 0 40 45 0 45 0 0 40 0 40 -45 0 -45 0 0 69 c0 79 13 101 61 101 27 0 29 3 29 35 l0 35 -56 0 c-48 0 -59 -4 -85 -29z"/>
<path d="M2290 640 l0 -240 40 0 40 0 0 95 c0 52 3 95 8 95 4 0 16 -7 26 -15 11 -8 41 -15 66 -15 90 0 120 56 120 223 l0 97 -45 0 -45 0 0 -105 c0 -92 -3 -108 -20 -125 -25 -25 -51 -25 -81 -1 -22 18 -24 28 -27 125 l-4 106 -39 0 -39 0 0 -240z"/>
</g>
<g id="layer102" fill="#265ad5" stroke="none">
<path d="M938 2184 c-37 -19 -48 -43 -48 -100 l0 -47 237 -239 c257 -258 280 -274 343 -248 63 26 87 89 56 148 -18 32 -462 475 -493 491 -29 15 -62 13 -95 -5z"/>
<path d="M785 1533 c-154 -20 -327 -122 -420 -245 -82 -109 -120 -203 -134 -332 -36 -316 150 -604 454 -703 101 -32 262 -36 365 -9 398 107 601 544 425 914 -124 262 -403 413 -690 375z m227 -233 c120 -37 215 -121 272 -240 42 -89 49 -217 17 -312 -92 -277 -418 -394 -661 -237 -188 121 -251 363 -149 568 96 191 316 285 521 221z"/>
</g>
<g id="layer103" fill="#1983db" stroke="none">
<path d="M785 1534 c-295 -46 -521 -282 -554 -578 -36 -316 150 -604 454 -703 101 -32 262 -36 365 -9 242 65 424 258 474 499 25 122 18 274 -13 284 -22 8 -481 465 -481 479 0 7 -8 15 -17 19 -23 8 -188 15 -228 9z m227 -234 c120 -37 215 -121 272 -240 42 -89 49 -217 17 -312 -92 -277 -418 -394 -661 -237 -188 121 -251 363 -149 568 96 191 316 285 521 221z"/>
<path d="M1593 420 c-39 -23 -56 -74 -42 -125 23 -83 141 -97 193 -23 33 46 10 125 -44 153 -39 20 -68 19 -107 -5z"/>
</g>
<g id="layer104" fill="#0fa5e0" stroke="none">
<path d="M406 1336 c-135 -145 -197 -335 -175 -534 29 -255 204 -468 454 -549 101 -32 262 -36 365 -9 94 26 210 89 281 154 l61 57 -79 80 -78 80 -53 -52 c-261 -256 -708 -88 -739 277 -11 125 38 260 126 348 l46 47 -79 78 -80 77 -50 -54z"/>
<path d="M1560 270 c6 -11 20 -25 33 -31 18 -10 17 -6 -7 20 -34 36 -41 39 -26 11z"/>
</g>
<g id="layer105" fill="#05bfe3" stroke="none">
<path d="M272 1128 c-30 -81 -32 -91 -41 -172 -36 -316 151 -605 454 -702 94 -31 253 -37 345 -15 62 15 150 50 150 60 0 4 -35 41 -78 84 l-78 78 -45 -10 c-259 -60 -513 125 -536 389 -5 59 4 135 22 183 5 11 2 17 -7 17 -7 0 -45 32 -83 70 -38 39 -73 70 -77 70 -3 0 -15 -24 -26 -52z"/>
</g>


</svg>